<svg width="8994" height="1952" viewBox="0 0 8994 1952" fill="none" xmlns="http://www.w3.org/2000/svg">
<path d="M2977 244C2971.67 223.333 2964.33 204.333 2955 187C2945.67 169.667 2933.67 154.667 2919 142C2904.33 129.333 2887 119.667 2867 113C2847.67 105.667 2825 102 2799 102C2761 102 2728 109.667 2700 125C2672.67 140.333 2650.33 161 2633 187C2615.67 212.333 2602.67 241.333 2594 274C2586 306.667 2582 340 2582 374C2582 408 2586 441.333 2594 474C2602.67 506.667 2615.67 536 2633 562C2650.33 587.333 2672.67 607.667 2700 623C2728 638.333 2761 646 2799 646C2827 646 2851.67 641.333 2873 632C2894.33 622 2912.67 608.667 2928 592C2943.33 574.667 2955.33 554.667 2964 532C2972.67 509.333 2978.33 485 2981 459H3103C3100.33 501.667 3091 540.667 3075 576C3059.67 611.333 3038.67 642 3012 668C2985.33 693.333 2954 713 2918 727C2882 741 2842.33 748 2799 748C2745.67 748 2697.67 738.333 2655 719C2613 699 2577.33 672 2548 638C2518.67 604 2496 564.333 2480 519C2464.67 473.667 2457 425.333 2457 374C2457 323.333 2464.67 275.333 2480 230C2496 184.667 2518.67 145 2548 111C2577.33 77 2613 50 2655 30C2697.67 9.99998 2745.67 -6.19888e-06 2799 -6.19888e-06C2839 -6.19888e-06 2876.67 5.66665 2912 17C2947.33 27.6666 2978.33 43.6667 3005 65C3032.33 85.6666 3054.33 111 3071 141C3087.67 171 3098 205.333 3102 244H2977ZM3416.68 17H3541.68V623H3904.68V731H3416.68V17ZM4190.9 17H4315.9V731H4190.9V17ZM5151.22 244C5145.89 223.333 5138.55 204.333 5129.22 187C5119.89 169.667 5107.89 154.667 5093.22 142C5078.55 129.333 5061.22 119.667 5041.22 113C5021.89 105.667 4999.22 102 4973.22 102C4935.22 102 4902.22 109.667 4874.22 125C4846.89 140.333 4824.55 161 4807.22 187C4789.89 212.333 4776.89 241.333 4768.22 274C4760.22 306.667 4756.22 340 4756.22 374C4756.22 408 4760.22 441.333 4768.22 474C4776.89 506.667 4789.89 536 4807.22 562C4824.55 587.333 4846.89 607.667 4874.22 623C4902.22 638.333 4935.22 646 4973.22 646C5001.22 646 5025.89 641.333 5047.22 632C5068.55 622 5086.89 608.667 5102.22 592C5117.55 574.667 5129.55 554.667 5138.22 532C5146.89 509.333 5152.55 485 5155.22 459H5277.22C5274.55 501.667 5265.22 540.667 5249.22 576C5233.89 611.333 5212.89 642 5186.22 668C5159.55 693.333 5128.22 713 5092.22 727C5056.22 741 5016.55 748 4973.22 748C4919.89 748 4871.89 738.333 4829.22 719C4787.22 699 4751.55 672 4722.22 638C4692.89 604 4670.22 564.333 4654.22 519C4638.89 473.667 4631.22 425.333 4631.22 374C4631.22 323.333 4638.89 275.333 4654.22 230C4670.22 184.667 4692.89 145 4722.22 111C4751.55 77 4787.22 50 4829.22 30C4871.89 9.99998 4919.89 -6.19888e-06 4973.22 -6.19888e-06C5013.22 -6.19888e-06 5050.89 5.66665 5086.22 17C5121.55 27.6666 5152.55 43.6667 5179.22 65C5206.55 85.6666 5228.55 111 5245.22 141C5261.89 171 5272.22 205.333 5276.22 244H5151.22ZM5590.9 17H5715.9V342L6033.9 17H6187.9L5902.9 302L6207.9 731H6051.9L5817.9 390L5715.9 491V731H5590.9V17ZM6475.47 17H6771.47C6826.14 17 6873.47 26.3333 6913.47 45C6953.47 63.6666 6986.14 89.3333 7011.47 122C7036.8 154 7055.47 191.667 7067.47 235C7080.14 278.333 7086.47 324.667 7086.47 374C7086.47 423.333 7080.14 469.667 7067.47 513C7055.47 556.333 7036.8 594.333 7011.47 627C6986.14 659 6953.47 684.333 6913.47 703C6873.47 721.667 6826.14 731 6771.47 731H6475.47V17ZM6600.47 629H6723.47C6772.14 629 6811.8 622.667 6842.47 610C6873.8 596.667 6898.14 578.667 6915.47 556C6933.47 532.667 6945.47 505.667 6951.47 475C6958.14 443.667 6961.47 410 6961.47 374C6961.47 338 6958.14 304.667 6951.47 274C6945.47 242.667 6933.47 215.667 6915.47 193C6898.14 169.667 6873.8 151.667 6842.47 139C6811.8 125.667 6772.14 119 6723.47 119H6600.47V629ZM7588.15 17H7721.15L7996.15 731H7862.15L7795.15 542H7510.15L7443.15 731H7314.15L7588.15 17ZM7544.15 447H7762.15L7655.15 140H7652.15L7544.15 447ZM8375.92 451L8107.92 17H8252.92L8441.92 337L8627.92 17H8767.92L8500.92 451V731H8375.92V451ZM2686 1238H2819L3094 1952H2960L2893 1763H2608L2541 1952H2412L2686 1238ZM2642 1668H2860L2753 1361H2750L2642 1668ZM3361.99 1238H3657.99C3712.66 1238 3759.99 1247.33 3799.99 1266C3839.99 1284.67 3872.66 1310.33 3897.99 1343C3923.33 1375 3941.99 1412.67 3953.99 1456C3966.66 1499.33 3972.99 1545.67 3972.99 1595C3972.99 1644.33 3966.66 1690.67 3953.99 1734C3941.99 1777.33 3923.33 1815.33 3897.99 1848C3872.66 1880 3839.99 1905.33 3799.99 1924C3759.99 1942.67 3712.66 1952 3657.99 1952H3361.99V1238ZM3486.99 1850H3609.99C3658.66 1850 3698.33 1843.67 3728.99 1831C3760.33 1817.67 3784.66 1799.67 3801.99 1777C3819.99 1753.67 3831.99 1726.67 3837.99 1696C3844.66 1664.67 3847.99 1631 3847.99 1595C3847.99 1559 3844.66 1525.67 3837.99 1495C3831.99 1463.67 3819.99 1436.67 3801.99 1414C3784.66 1390.67 3760.33 1372.67 3728.99 1360C3698.33 1346.67 3658.66 1340 3609.99 1340H3486.99V1850ZM4281.67 1238H4457.67L4654.67 1797H4656.67L4848.67 1238H5022.67V1952H4903.67V1401H4901.67L4703.67 1952H4600.67L4402.67 1401H4400.67V1952H4281.67V1238ZM5372.34 1238H5497.34V1952H5372.34V1238ZM5845.66 1238H5977.66L6303.66 1764H6305.66V1238H6424.66V1952H6292.66L5967.66 1427H5964.66V1952H5845.66V1238Z" fill="white"/>
<mask id="path-2-inside-1_102_2" fill="white">
<path d="M0 414H1800V1562H0V414Z"/>
</mask>
<path d="M1800 1562V1687H1925V1562H1800ZM0 1562H-125V1687H0V1562ZM1800 414H1675V1562H1800H1925V414H1800ZM1800 1562V1437H0V1562V1687H1800V1562ZM0 1562H125V414H0H-125V1562H0Z" fill="white" mask="url(#path-2-inside-1_102_2)"/>
<path d="M1300 869C1300 1045.73 1156.73 1189 980 1189H820C643.269 1189 500 1045.73 500 869V539H1300V869ZM625 664V808C625 949.385 739.615 1064 881 1064H919C1060.38 1064 1175 949.385 1175 808V664H625Z" fill="white"/>
</svg>
