<svg width="6311" height="748" viewBox="0 0 6311 748" fill="none" xmlns="http://www.w3.org/2000/svg">
<path d="M520 244C514.667 223.333 507.333 204.333 498 187C488.667 169.667 476.667 154.667 462 142C447.333 129.333 430 119.667 410 113C390.667 105.667 368 102 342 102C304 102 271 109.667 243 125C215.667 140.333 193.333 161 176 187C158.667 212.333 145.667 241.333 137 274C129 306.667 125 340 125 374C125 408 129 441.333 137 474C145.667 506.667 158.667 536 176 562C193.333 587.333 215.667 607.667 243 623C271 638.333 304 646 342 646C370 646 394.667 641.333 416 632C437.333 622 455.667 608.667 471 592C486.333 574.667 498.333 554.667 507 532C515.667 509.333 521.333 485 524 459H646C643.333 501.667 634 540.667 618 576C602.667 611.333 581.667 642 555 668C528.333 693.333 497 713 461 727C425 741 385.333 748 342 748C288.667 748 240.667 738.333 198 719C156 699 120.333 672 91 638C61.6667 604 39 564.333 23 519C7.66667 473.667 2.5034e-06 425.333 2.5034e-06 374C2.5034e-06 323.333 7.66667 275.333 23 230C39 184.667 61.6667 145 91 111C120.333 77 156 50 198 30C240.667 9.99998 288.667 -6.19888e-06 342 -6.19888e-06C382 -6.19888e-06 419.667 5.66665 455 17C490.333 27.6666 521.333 43.6667 548 65C575.333 85.6666 597.333 111 614 141C630.667 171 641 205.333 645 244H520ZM959.68 17H1084.68V623H1447.68V731H959.68V17ZM1733.9 17H1858.9V731H1733.9V17ZM2694.22 244C2688.89 223.333 2681.55 204.333 2672.22 187C2662.89 169.667 2650.89 154.667 2636.22 142C2621.55 129.333 2604.22 119.667 2584.22 113C2564.89 105.667 2542.22 102 2516.22 102C2478.22 102 2445.22 109.667 2417.22 125C2389.89 140.333 2367.55 161 2350.22 187C2332.89 212.333 2319.89 241.333 2311.22 274C2303.22 306.667 2299.22 340 2299.22 374C2299.22 408 2303.22 441.333 2311.22 474C2319.89 506.667 2332.89 536 2350.22 562C2367.55 587.333 2389.89 607.667 2417.22 623C2445.22 638.333 2478.22 646 2516.22 646C2544.22 646 2568.89 641.333 2590.22 632C2611.55 622 2629.89 608.667 2645.22 592C2660.55 574.667 2672.55 554.667 2681.22 532C2689.89 509.333 2695.55 485 2698.22 459H2820.22C2817.55 501.667 2808.22 540.667 2792.22 576C2776.89 611.333 2755.89 642 2729.22 668C2702.55 693.333 2671.22 713 2635.22 727C2599.22 741 2559.55 748 2516.22 748C2462.89 748 2414.89 738.333 2372.22 719C2330.22 699 2294.55 672 2265.22 638C2235.89 604 2213.22 564.333 2197.22 519C2181.89 473.667 2174.22 425.333 2174.22 374C2174.22 323.333 2181.89 275.333 2197.22 230C2213.22 184.667 2235.89 145 2265.22 111C2294.55 77 2330.22 50 2372.22 30C2414.89 9.99998 2462.89 -6.19888e-06 2516.22 -6.19888e-06C2556.22 -6.19888e-06 2593.89 5.66665 2629.22 17C2664.55 27.6666 2695.55 43.6667 2722.22 65C2749.55 85.6666 2771.55 111 2788.22 141C2804.89 171 2815.22 205.333 2819.22 244H2694.22ZM3133.9 17H3258.9V342L3576.9 17H3730.9L3445.9 302L3750.9 731H3594.9L3360.9 390L3258.9 491V731H3133.9V17ZM4018.47 17H4314.47C4369.14 17 4416.47 26.3333 4456.47 45C4496.47 63.6666 4529.14 89.3333 4554.47 122C4579.8 154 4598.47 191.667 4610.47 235C4623.14 278.333 4629.47 324.667 4629.47 374C4629.47 423.333 4623.14 469.667 4610.47 513C4598.47 556.333 4579.8 594.333 4554.47 627C4529.14 659 4496.47 684.333 4456.47 703C4416.47 721.667 4369.14 731 4314.47 731H4018.47V17ZM4143.47 629H4266.47C4315.14 629 4354.8 622.667 4385.47 610C4416.8 596.667 4441.14 578.667 4458.47 556C4476.47 532.667 4488.47 505.667 4494.47 475C4501.14 443.667 4504.47 410 4504.47 374C4504.47 338 4501.14 304.667 4494.47 274C4488.47 242.667 4476.47 215.667 4458.47 193C4441.14 169.667 4416.8 151.667 4385.47 139C4354.8 125.667 4315.14 119 4266.47 119H4143.47V629ZM5131.15 17H5264.15L5539.15 731H5405.15L5338.15 542H5053.15L4986.15 731H4857.15L5131.15 17ZM5087.15 447H5305.15L5198.15 140H5195.15L5087.15 447ZM5918.92 451L5650.92 17H5795.92L5984.92 337L6170.92 17H6310.92L6043.92 451V731H5918.92V451Z" fill="white"/>
</svg>
