<svg width="1800" height="1148" viewBox="0 0 1800 1148" fill="none" xmlns="http://www.w3.org/2000/svg">
<mask id="path-1-inside-1_115_18" fill="white">
<path d="M0 0H1800V1148H0V0Z"/>
</mask>
<path d="M1800 1148V1273H1925V1148H1800ZM0 1148H-125V1273H0V1148ZM1800 0H1675V1148H1800H1925V0H1800ZM1800 1148V1023H0V1148V1273H1800V1148ZM0 1148H125V0H0H-125V1148H0Z" fill="white" mask="url(#path-1-inside-1_115_18)"/>
<path d="M1300 455C1300 631.731 1156.73 775 980 775H820C643.269 775 500 631.731 500 455V125H1300V455ZM625 250V394C625 535.385 739.615 650 881 650H919C1060.38 650 1175 535.385 1175 394V250H625Z" fill="white"/>
</svg>
