<svg width="8994" height="1174" viewBox="0 0 8994 1174" fill="none" xmlns="http://www.w3.org/2000/svg">
<path d="M2977 466C2971.67 445.333 2964.33 426.333 2955 409C2945.67 391.667 2933.67 376.667 2919 364C2904.33 351.333 2887 341.667 2867 335C2847.67 327.667 2825 324 2799 324C2761 324 2728 331.667 2700 347C2672.67 362.333 2650.33 383 2633 409C2615.67 434.333 2602.67 463.333 2594 496C2586 528.667 2582 562 2582 596C2582 630 2586 663.333 2594 696C2602.67 728.667 2615.67 758 2633 784C2650.33 809.333 2672.67 829.667 2700 845C2728 860.333 2761 868 2799 868C2827 868 2851.67 863.333 2873 854C2894.33 844 2912.67 830.667 2928 814C2943.33 796.667 2955.33 776.667 2964 754C2972.67 731.333 2978.33 707 2981 681H3103C3100.33 723.667 3091 762.667 3075 798C3059.67 833.333 3038.67 864 3012 890C2985.33 915.333 2954 935 2918 949C2882 963 2842.33 970 2799 970C2745.67 970 2697.67 960.333 2655 941C2613 921 2577.33 894 2548 860C2518.67 826 2496 786.333 2480 741C2464.67 695.667 2457 647.333 2457 596C2457 545.333 2464.67 497.333 2480 452C2496 406.667 2518.67 367 2548 333C2577.33 299 2613 272 2655 252C2697.67 232 2745.67 222 2799 222C2839 222 2876.67 227.667 2912 239C2947.33 249.667 2978.33 265.667 3005 287C3032.33 307.667 3054.33 333 3071 363C3087.67 393 3098 427.333 3102 466H2977ZM3416.68 239H3541.68V845H3904.68V953H3416.68V239ZM4190.9 239H4315.9V953H4190.9V239ZM5151.22 466C5145.89 445.333 5138.55 426.333 5129.22 409C5119.89 391.667 5107.89 376.667 5093.22 364C5078.55 351.333 5061.22 341.667 5041.22 335C5021.89 327.667 4999.22 324 4973.22 324C4935.22 324 4902.22 331.667 4874.22 347C4846.89 362.333 4824.55 383 4807.22 409C4789.89 434.333 4776.89 463.333 4768.22 496C4760.22 528.667 4756.22 562 4756.22 596C4756.22 630 4760.22 663.333 4768.22 696C4776.89 728.667 4789.89 758 4807.22 784C4824.55 809.333 4846.89 829.667 4874.22 845C4902.22 860.333 4935.22 868 4973.22 868C5001.22 868 5025.89 863.333 5047.22 854C5068.55 844 5086.89 830.667 5102.22 814C5117.55 796.667 5129.55 776.667 5138.22 754C5146.89 731.333 5152.55 707 5155.22 681H5277.22C5274.55 723.667 5265.22 762.667 5249.22 798C5233.89 833.333 5212.89 864 5186.22 890C5159.55 915.333 5128.22 935 5092.22 949C5056.22 963 5016.55 970 4973.22 970C4919.89 970 4871.89 960.333 4829.22 941C4787.22 921 4751.55 894 4722.22 860C4692.89 826 4670.22 786.333 4654.22 741C4638.89 695.667 4631.22 647.333 4631.22 596C4631.22 545.333 4638.89 497.333 4654.22 452C4670.22 406.667 4692.89 367 4722.22 333C4751.55 299 4787.22 272 4829.22 252C4871.89 232 4919.89 222 4973.22 222C5013.22 222 5050.89 227.667 5086.22 239C5121.55 249.667 5152.55 265.667 5179.22 287C5206.55 307.667 5228.55 333 5245.22 363C5261.89 393 5272.22 427.333 5276.22 466H5151.22ZM5590.9 239H5715.9V564L6033.9 239H6187.9L5902.9 524L6207.9 953H6051.9L5817.9 612L5715.9 713V953H5590.9V239ZM6475.47 239H6771.47C6826.14 239 6873.47 248.333 6913.47 267C6953.47 285.667 6986.14 311.333 7011.47 344C7036.8 376 7055.47 413.667 7067.47 457C7080.14 500.333 7086.47 546.667 7086.47 596C7086.47 645.333 7080.14 691.667 7067.47 735C7055.47 778.333 7036.8 816.333 7011.47 849C6986.14 881 6953.47 906.333 6913.47 925C6873.47 943.667 6826.14 953 6771.47 953H6475.47V239ZM6600.47 851H6723.47C6772.14 851 6811.8 844.667 6842.47 832C6873.8 818.667 6898.14 800.667 6915.47 778C6933.47 754.667 6945.47 727.667 6951.47 697C6958.14 665.667 6961.47 632 6961.47 596C6961.47 560 6958.14 526.667 6951.47 496C6945.47 464.667 6933.47 437.667 6915.47 415C6898.14 391.667 6873.8 373.667 6842.47 361C6811.8 347.667 6772.14 341 6723.47 341H6600.47V851ZM7588.15 239H7721.15L7996.15 953H7862.15L7795.15 764H7510.15L7443.15 953H7314.15L7588.15 239ZM7544.15 669H7762.15L7655.15 362H7652.15L7544.15 669ZM8375.92 673L8107.92 239H8252.92L8441.92 559L8627.92 239H8767.92L8500.92 673V953H8375.92V673Z" fill="white"/>
<mask id="path-2-inside-1_98_120" fill="white">
<path d="M0 26H1800V1174H0V26Z"/>
</mask>
<path d="M1800 1174V1299H1925V1174H1800ZM0 1174H-125V1299H0V1174ZM1800 26H1675V1174H1800H1925V26H1800ZM1800 1174V1049H0V1174V1299H1800V1174ZM0 1174H125V26H0H-125V1174H0Z" fill="white" mask="url(#path-2-inside-1_98_120)"/>
<path d="M1300 481C1300 657.731 1156.73 801 980 801H820C643.269 801 500 657.731 500 481V151H1300V481ZM625 276V420C625 561.385 739.615 676 881 676H919C1060.38 676 1175 561.385 1175 420V276H625Z" fill="white"/>
</svg>
