<svg width="175" height="37" viewBox="0 0 175 37" fill="none" xmlns="http://www.w3.org/2000/svg">
<g clip-path="url(#clip0_38_20)">
<path fill-rule="evenodd" clip-rule="evenodd" d="M13.9607 26.1279C15.4129 28.4918 17.4452 30.4453 19.8647 31.8028C22.2842 33.1603 25.0106 33.8768 27.7849 33.8842C36.3357 33.8842 41.0433 26.5113 41.0433 26.5113L41.6571 28.478C37.6978 33.6188 30.6254 36.7155 22.7123 36.7155C13.6012 36.7155 5.74536 32.3765 2.12894 26.1205C0.745598 23.7669 0.010996 21.0886 0 18.3586C0 8.219 10.1654 0 22.705 0C31.5654 0 38.6987 3.78785 42.4442 9.27886L27.5766 18.1688L36.0555 5.16291C33.5544 3.41842 30.6205 2.39791 27.5766 2.21373C23.3681 2.25289 19.3439 3.94653 16.3739 6.9286C13.4039 9.91067 11.7266 13.9417 11.7045 18.1504C11.704 20.9671 12.485 23.7287 13.9607 26.1279Z" fill="white"/>
<path fill-rule="evenodd" clip-rule="evenodd" d="M53.1305 26.1193C53.0863 26.4158 53.0642 26.7153 53.0642 27.0151C53.0642 28.5997 53.6936 30.1195 54.8141 31.24C55.9346 32.3605 57.4544 32.9899 59.039 32.9899C60.6236 32.9899 62.1434 32.3605 63.2639 31.24C64.3844 30.1195 65.0138 28.5997 65.0138 27.0151C65.0142 26.714 64.992 26.4134 64.9475 26.1156C64.7322 24.703 64.018 23.4144 62.9342 22.4832C61.8504 21.552 60.4688 21.0401 59.0399 21.0401C57.6111 21.0401 56.2295 21.552 55.1457 22.4832C54.0619 23.4144 53.3476 24.703 53.1324 26.1156M75.3009 26.1156L78.2704 36.117H67.8524L65.8046 29.2675C64.4314 33.2139 59.8049 36.117 54.3065 36.117C47.728 36.117 42.3955 31.9623 42.3955 26.8381C42.3955 26.5985 42.4084 26.3589 42.4305 26.1156C42.8987 21.3232 48.0376 17.5556 54.3065 17.5556C57.5666 17.4936 60.7396 18.6102 63.2425 20.7002L60.4058 11.2167H48.4524C51.9459 9.49403 55.558 8.02307 59.2611 6.81505C68.081 3.60413 70.8846 11.2167 70.8846 11.2167L75.3009 26.1156Z" fill="white"/>
<path fill-rule="evenodd" clip-rule="evenodd" d="M108.186 26.1166V36.118H97.4659V14.1466C97.4672 13.4631 97.2292 12.8006 96.7932 12.2741C96.3571 11.7477 95.7506 11.3904 95.0788 11.2643C94.4069 11.1382 93.7122 11.2513 93.1149 11.5838C92.5177 11.9163 92.0557 12.4474 91.809 13.0849V36.1254H81.2915V11.2159H75.1572C75.1572 11.2159 83.6914 6.05481 86.6498 6.05481C87.9687 6.06582 89.2339 6.57831 90.1887 7.48823C91.1435 8.39816 91.7162 9.63732 91.7906 10.9541C95.9176 8.71829 100.011 6.03638 102.826 6.03638C104.222 6.03629 105.562 6.58037 106.563 7.55304C107.564 8.5257 108.146 9.85028 108.186 11.2454V26.1166Z" fill="white"/>
<path fill-rule="evenodd" clip-rule="evenodd" d="M124.249 26.1164L125.74 31.0471C125.758 32.0659 126.177 33.0367 126.906 33.7486C127.635 34.4605 128.616 34.8561 129.635 34.8497C130.153 34.8499 130.666 34.748 131.145 34.5499C131.623 34.3518 132.058 34.0613 132.425 33.695C132.791 33.3287 133.082 32.8937 133.28 32.4151C133.479 31.9364 133.581 31.4233 133.581 30.9051C133.58 30.753 133.572 30.601 133.555 30.4498L132.287 26.1164L127.834 10.8986C127.725 9.93519 127.266 9.04544 126.543 8.39939C125.82 7.75334 124.884 7.3963 123.915 7.39648C122.891 7.47018 121.921 7.88761 121.164 8.58113C120.406 9.27466 119.905 10.2036 119.742 11.2175L124.249 26.1164ZM141.304 26.1164C140.09 29.8056 137.531 32.9021 134.136 34.7888C130.741 36.6756 126.76 37.2143 122.986 36.2975C119.212 35.3807 115.921 33.0758 113.771 29.8418C111.62 26.6079 110.766 22.6824 111.38 18.8473C111.993 15.0122 114.029 11.549 117.082 9.14762C120.134 6.74625 123.979 5.58297 127.851 5.88953C131.723 6.19608 135.337 7.94996 137.974 10.8018C140.61 13.6536 142.076 17.394 142.078 21.2779C142.079 22.9217 141.818 24.5551 141.304 26.1164Z" fill="white"/>
<path fill-rule="evenodd" clip-rule="evenodd" d="M158.626 26.1162V36.1176H148.1V11.2154H142.218C142.218 11.2154 150.499 6.05438 153.462 6.05438C154.779 6.06475 156.044 6.57569 156.999 7.48369C157.954 8.39168 158.529 9.62883 158.606 10.9445C162.735 8.71786 166.825 6.04517 169.64 6.04517C171.035 6.04508 172.376 6.58916 173.377 7.56183C174.378 8.53449 174.96 9.85907 175 11.2542V36.1176H164.283V14.1462C164.284 13.4626 164.046 12.8002 163.61 12.2737C163.174 11.7473 162.568 11.39 161.896 11.2639C161.224 11.1378 160.529 11.2508 159.932 11.5834C159.335 11.9159 158.873 12.447 158.626 13.0845V26.1162Z" fill="white"/>
</g>
<defs>
<clipPath id="clip0_38_20">
<rect width="175" height="37" fill="white"/>
</clipPath>
</defs>
</svg>
