<svg width="2619" height="444" viewBox="0 0 2619 444" fill="none" xmlns="http://www.w3.org/2000/svg">
<g clip-path="url(#clip0_38_16)">
<path d="M1995.53 3.82267V345.188C1995.53 367.453 2005.91 379.323 2028.17 379.323H2140.93V417.912C2140.99 418.904 2140.85 419.898 2140.5 420.828C2140.15 421.759 2139.6 422.604 2138.9 423.307C2138.2 424.009 2137.35 424.554 2136.42 424.903C2135.5 425.253 2134.5 425.4 2133.51 425.333H1951.02C1894.64 425.333 1885.73 394.167 1885.73 365.969V27.5733C1885.73 11.2453 1891.67 3.82267 1910.96 3.82267H1995.53ZM1786.33 3.82267V403.073C1786.33 420.88 1778.91 425.333 1764.08 425.333H1678.03V26.088C1678.03 12.728 1682.47 3.82267 1701.76 3.82267H1786.33ZM0 61.708C0 29.0573 0 3.82267 53.412 3.82267H284.865V43.896C284.933 44.6929 284.826 45.4949 284.551 46.2459C284.276 46.997 283.841 47.6791 283.276 48.2445C282.71 48.81 282.028 49.2451 281.277 49.5195C280.526 49.7939 279.724 49.901 278.927 49.8333H139.464C121.661 49.8333 112.76 58.74 112.76 78.0307V184.896H275.964V227.937C276.03 228.734 275.922 229.536 275.648 230.287C275.373 231.038 274.939 231.72 274.375 232.287C273.808 232.851 273.126 233.285 272.375 233.559C271.625 233.834 270.823 233.941 270.027 233.875H112.76V403.073C112.76 419.396 103.853 425.333 86.0533 425.333H0V61.708ZM452.516 3.82267V325.896C452.516 354.093 456.969 373.385 476.255 383.776C491.275 391.097 507.765 394.901 524.474 394.901C541.183 394.901 557.673 391.097 572.693 383.776C590.5 373.385 597.917 357.063 597.917 325.896V24.604C597.917 11.244 602.371 3.82267 621.656 3.82267H706.224V315.507C709.697 369.32 672.973 417.453 620.171 428.304C559.243 443.153 495.641 443.153 434.713 428.304C373.887 410.496 345.693 374.871 345.693 315.507V24.604C345.693 11.244 350.147 2.33734 366.464 2.33734H452.516M2495.52 3.82267C2476.92 2.23467 2460.18 15.1147 2456.95 33.5053L2388.7 324.412H2387.21L2314.52 3.82267H2218.08C2198.79 3.82267 2192.85 12.7293 2192.85 29.0573V426.817H2234.4C2240.33 426.817 2243.3 423.849 2243.3 416.427V82.484H2249.23L2336.77 425.333H2394.64C2416.89 425.333 2424.31 416.427 2430.24 395.651L2508.87 82.484H2514.81V425.333H2591.96C2611.25 425.333 2618.67 417.912 2618.67 400.104V3.82401L2495.52 3.82267ZM1218.09 232.391H1109.78V425.333H1195.83C1210.67 425.333 1218.09 420.88 1218.09 403.073V232.391Z" fill="white"/>
<path d="M1212.15 150.76C1214.2 149.582 1215.85 147.827 1216.91 145.716C1217.96 143.604 1218.37 141.229 1218.09 138.885V3.82263H1133.52C1114.23 3.82263 1109.78 12.7293 1109.78 26.0893V230.907L1212.15 150.76Z" fill="#FB0020"/>
<path d="M841.24 392.683C888.713 386.745 903.552 358.547 903.552 316.989V26.088C903.552 8.27596 912.453 3.82263 924.323 3.82263H1010.38V278.401C1010.38 345.188 995.536 379.323 956.963 409.011C936.193 423.849 900.584 441.661 820.464 441.661C775.957 441.661 755.183 438.693 752.219 438.693C749.251 438.693 746.281 435.724 746.281 432.755V397.136C768.536 395.651 810.079 397.136 841.24 392.683ZM1382.78 3.82263C1329.36 3.82263 1329.36 30.5426 1329.36 61.708V170.052C1329.36 173.021 1327.88 173.021 1327.88 174.505L1253.7 232.391H1329.36V425.333H1415.42C1433.22 425.333 1442.12 419.396 1442.12 403.073V232.391H1599.39C1600.19 232.457 1600.99 232.35 1601.74 232.075C1602.49 231.801 1603.17 231.367 1603.73 230.803C1604.3 230.238 1604.74 229.555 1605.01 228.804C1605.29 228.053 1605.39 227.25 1605.32 226.453V183.412H1442.12V76.5466C1441.48 72.6995 1441.76 68.7542 1442.95 65.0392C1444.14 61.3241 1446.2 57.9468 1448.96 55.1884C1451.71 52.4299 1455.09 50.3702 1458.8 49.1806C1462.52 47.991 1466.46 47.706 1470.31 48.3493H1609.78C1610.57 48.4169 1611.37 48.3097 1612.12 48.0352C1612.87 47.7606 1613.56 47.3254 1614.12 46.76C1614.69 46.1951 1615.12 45.5132 1615.4 44.762C1615.67 44.0108 1615.78 43.2087 1615.71 42.412V3.82263H1382.78Z" fill="white"/>
</g>
<defs>
<clipPath id="clip0_38_16">
<rect width="2618.67" height="444" fill="white"/>
</clipPath>
</defs>
</svg>
